<?xml version="1.0" standalone="no"?>
<!DOCTYPE svg PUBLIC "-//W3C//DTD SVG 20010904//EN"
 "http://www.w3.org/TR/2001/REC-SVG-20010904/DTD/svg10.dtd">
<svg version="1.0" xmlns="http://www.w3.org/2000/svg"
 width="600.000000pt" height="266.000000pt" viewBox="0 0 600.000000 266.000000"
 preserveAspectRatio="xMidYMid meet">

<g transform="translate(0.000000,266.000000) scale(0.100000,-0.100000)"
fill="#000000" stroke="none">
<path d="M820 2130 l-324 -321 172 -172 c94 -95 175 -175 178 -179 6 -7 -39
-75 -58 -89 -5 -3 -110 96 -233 220 l-225 226 0 -732 0 -733 45 0 45 0 1 473
c0 259 0 532 -1 605 -1 72 2 132 6 132 6 0 205 -198 272 -272 l23 -25 -49
-104 c-55 -117 -59 -126 -100 -264 -45 -147 -74 -331 -70 -445 l3 -95 55 0 55
0 6 130 c4 72 14 170 23 219 28 152 143 466 170 466 5 0 84 -74 176 -165 l165
-165 170 170 c130 130 172 167 182 158 7 -6 13 -16 13 -23 0 -7 15 -41 33 -76
41 -82 50 -106 77 -209 12 -47 26 -98 31 -114 5 -16 14 -92 20 -170 6 -78 13
-160 15 -184 l5 -43 47 3 47 3 3 75 c4 97 -20 315 -46 425 -5 22 -22 72 -37
110 -15 39 -29 79 -33 90 -3 11 -28 65 -55 120 l-49 100 148 142 c82 78 150
140 153 137 3 -2 4 -275 3 -604 l-3 -600 51 0 50 0 0 725 c-1 398 -4 726 -8
728 -4 3 -32 -22 -62 -55 -30 -32 -93 -96 -140 -141 -47 -45 -119 -117 -161
-160 -42 -42 -79 -77 -83 -77 -10 0 -27 19 -49 53 -20 30 -21 28 28 85 11 13
84 82 163 154 78 72 142 135 142 140 0 14 -639 648 -653 648 -7 0 -158 -144
-337 -320z m656 -327 l241 -5 -106 -102 c-104 -100 -131 -127 -170 -176 l-21
-25 -37 45 c-68 82 -217 220 -237 220 -3 0 -36 -28 -73 -62 -103 -97 -116
-110 -149 -151 l-31 -38 -149 145 -149 145 159 0 c87 0 160 2 163 4 6 7 276 7
559 0z m-249 -264 c17 -22 43 -49 57 -60 56 -44 55 -51 -41 -149 l-87 -91 -93
93 -93 93 92 92 c103 104 101 103 165 22z m-299 -92 c30 -30 31 -35 17 -47
-14 -12 -21 -9 -47 17 -19 20 -29 37 -25 47 9 23 19 20 55 -17z m509 17 c3 -9
-6 -27 -23 -45 -33 -35 -40 -36 -49 -8 -5 16 0 27 21 45 34 28 43 29 51 8z
m-286 -304 c7 0 60 48 120 106 l107 106 31 -42 c17 -24 31 -46 31 -50 0 -4
-30 -36 -67 -71 -38 -36 -89 -87 -114 -114 -26 -28 -60 -63 -77 -78 l-30 -29
-141 143 c-78 79 -141 145 -141 147 0 9 24 49 42 69 l20 21 104 -104 c57 -57
109 -104 115 -104z m397 146 l20 -34 -27 -31 c-35 -39 -42 -39 -65 0 l-18 31
33 34 c18 19 34 34 35 34 1 0 11 -15 22 -34z m-719 -15 c26 -37 26 -42 -5 -65
-25 -18 -27 -18 -52 1 -34 25 -39 49 -16 74 24 27 49 24 73 -10z"/>
<path d="M2924 1685 c0 -137 2 -195 3 -128 2 67 2 179 0 250 -1 70 -3 16 -3
-122z"/>
<path d="M3772 1710 c0 -19 2 -27 5 -17 2 9 2 25 0 35 -3 9 -5 1 -5 -18z"/>
<path d="M2309 1723 c-1 -5 -1 -11 0 -15 0 -5 -6 -8 -15 -8 -8 0 -12 5 -9 10
3 6 1 10 -5 10 -7 0 -10 -6 -7 -14 3 -8 -1 -20 -8 -26 -8 -7 -13 -16 -10 -20
3 -5 0 -10 -7 -12 -8 -3 -6 -7 5 -11 15 -6 23 9 15 29 -2 3 13 14 32 25 19 10
29 18 22 19 -7 0 -10 5 -7 10 3 6 4 10 1 10 -3 0 -7 -3 -7 -7z"/>
<path d="M3130 1715 c-15 -17 -35 -21 -24 -3 4 7 3 8 -4 4 -7 -4 -12 -14 -12
-22 0 -8 -6 -14 -12 -14 -8 0 -13 -12 -12 -30 1 -35 14 -54 14 -20 0 13 15 37
36 57 20 19 34 36 32 39 -3 2 -11 -2 -18 -11z"/>
<path d="M3170 1725 c0 -2 6 -8 13 -14 10 -8 14 -7 14 2 0 8 -6 14 -14 14 -7
0 -13 -1 -13 -2z"/>
<path d="M2495 1680 c47 -55 48 -56 37 -35 -6 11 -23 31 -39 45 l-28 25 30
-35z"/>
<path d="M3492 1690 c0 -14 2 -19 5 -12 2 6 2 18 0 25 -3 6 -5 1 -5 -13z"/>
<path d="M2400 1696 c0 -2 8 -10 18 -17 15 -13 16 -12 3 4 -13 16 -21 21 -21
13z"/>
<path d="M2699 1683 c-13 -16 -12 -17 4 -4 16 13 21 21 13 21 -2 0 -10 -8 -17
-17z"/>
<path d="M3514 1668 l-19 -23 23 19 c21 18 27 26 19 26 -2 0 -12 -10 -23 -22z"/>
<path d="M3626 1673 c-6 -14 -5 -15 5 -6 7 7 10 15 7 18 -3 3 -9 -2 -12 -12z"/>
<path d="M3792 1664 c-17 -12 -22 -24 -20 -57 l1 -42 4 40 c3 26 12 46 26 57
27 22 19 23 -11 2z"/>
<path d="M3310 1644 c20 -50 18 -51 -112 -53 -67 -1 -124 -4 -127 -6 -2 -3 55
-5 127 -5 130 0 132 0 132 23 0 32 -11 67 -21 67 -5 0 -4 -12 1 -26z"/>
<path d="M3493 1570 c0 -41 2 -58 4 -37 2 20 2 54 0 75 -2 20 -4 3 -4 -38z"/>
<path d="M2247 1606 c-3 -8 -2 -27 3 -43 8 -26 8 -25 9 15 1 43 -3 52 -12 28z"/>
<path d="M3070 1542 c0 -17 4 -34 10 -37 6 -4 7 6 3 27 -8 44 -13 48 -13 10z"/>
<path d="M2661 1514 c0 -11 3 -14 6 -6 3 7 2 16 -1 19 -3 4 -6 -2 -5 -13z"/>
<path d="M3421 1514 c0 -11 3 -14 6 -6 3 7 2 16 -1 19 -3 4 -6 -2 -5 -13z"/>
<path d="M2496 1428 c-15 -23 -20 -35 -11 -28 15 13 50 70 42 70 -2 0 -16 -19
-31 -42z"/>
<path d="M3115 1450 c10 -11 20 -20 23 -20 3 0 -3 9 -13 20 -10 11 -20 20 -23
20 -3 0 3 -9 13 -20z"/>
<path d="M2305 1410 c10 -11 20 -20 23 -20 3 0 -3 9 -13 20 -10 11 -20 20 -23
20 -3 0 3 -9 13 -20z"/>
<path d="M2220 1416 c0 -2 8 -10 18 -17 15 -13 16 -12 3 4 -13 16 -21 21 -21
13z"/>
<path d="M2430 1375 c-14 -8 -20 -14 -14 -15 5 0 19 7 30 15 24 18 16 19 -16
0z"/>
<path d="M2270 1376 c0 -2 7 -7 16 -10 8 -3 12 -2 9 4 -6 10 -25 14 -25 6z"/>
<path d="M2868 978 c-60 -20 -76 -38 -34 -38 21 0 24 -6 30 -52 8 -67 8 -396
0 -425 -3 -12 -15 -25 -25 -28 -43 -14 -14 -24 66 -24 87 0 103 7 63 24 -22
10 -23 16 -26 142 l-3 131 27 21 c39 31 89 28 111 -6 15 -23 18 -46 15 -147
-3 -118 -10 -146 -38 -146 -8 0 -14 -4 -14 -10 0 -6 35 -10 85 -10 88 0 101 7
63 32 -22 15 -23 24 -28 166 -6 181 -11 192 -97 192 -43 0 -61 -5 -89 -26
l-34 -26 0 126 c0 69 -3 126 -7 125 -5 0 -34 -10 -65 -21z"/>
<path d="M3308 989 c-32 -18 -20 -79 16 -79 28 0 42 10 50 38 13 41 -25 65
-66 41z"/>
<path d="M3523 843 c-57 -59 -64 -73 -33 -73 19 0 20 -7 20 -144 0 -158 7
-190 44 -207 33 -16 70 -5 109 32 l32 30 -38 -6 c-63 -10 -67 -2 -67 156 l0
139 40 0 c29 0 40 4 40 15 0 11 -11 15 -40 15 l-40 0 0 44 c0 25 -3 47 -7 49
-5 2 -32 -20 -60 -50z"/>
<path d="M4540 893 c0 -5 -23 -31 -50 -60 -28 -29 -50 -55 -50 -58 0 -3 10 -5
23 -5 22 0 23 -1 25 -152 3 -161 10 -190 52 -203 11 -4 35 -1 54 5 41 13 83
55 66 65 -7 4 -17 2 -23 -4 -6 -6 -21 -11 -34 -11 -28 0 -30 9 -38 173 l-6
127 46 0 c32 0 45 4 45 14 0 10 -14 16 -42 18 l-43 3 3 48 c2 37 0 47 -12 47
-9 0 -16 -3 -16 -7z"/>
<path d="M3313 788 c-65 -21 -82 -38 -39 -38 21 0 24 -6 28 -39 2 -22 2 -90 0
-151 l-4 -112 -29 -12 c-16 -7 -26 -15 -22 -19 9 -10 193 -9 193 1 0 4 -12 14
-28 23 l-27 15 1 150 c0 82 -2 161 -5 176 l-6 26 -62 -20z"/>
<path d="M3798 785 c-64 -34 -89 -83 -89 -174 -1 -110 35 -166 122 -193 57
-17 113 3 167 58 23 24 42 53 42 64 0 27 -6 25 -40 -14 -37 -42 -94 -59 -137
-41 -40 17 -82 74 -90 119 l-6 36 64 1 c35 0 93 1 129 2 l65 2 -2 34 c-3 63
-64 121 -134 127 -33 3 -56 -2 -91 -21z m97 -25 c31 -12 53 -59 33 -72 -7 -4
-46 -8 -85 -8 -84 0 -93 12 -44 61 31 31 53 35 96 19z"/>
<path d="M4695 801 c-20 -8 -20 -8 1 -15 29 -9 35 -44 33 -191 -1 -132 10
-162 69 -179 38 -11 68 -3 116 29 l37 25 -3 -28 c-3 -31 3 -32 75 -6 51 18 59
29 27 39 -27 9 -34 57 -27 201 5 104 3 123 -9 128 -22 8 -85 6 -109 -4 -18 -7
-18 -8 8 -15 l28 -7 -2 -132 c-1 -151 -7 -166 -71 -166 -34 0 -41 4 -51 30 -8
17 -14 84 -16 157 -1 70 -4 130 -6 133 -6 9 -78 10 -100 1z"/>
<path d="M5484 791 c-51 -23 -80 -60 -100 -126 -18 -63 -7 -130 32 -186 33
-48 66 -64 130 -64 42 0 60 6 94 30 44 31 90 98 77 111 -4 4 -22 -6 -40 -23
-46 -43 -74 -56 -112 -49 -61 12 -115 73 -115 130 0 32 13 35 150 39 l105 2
-3 25 c-6 45 -37 85 -82 108 -53 27 -82 27 -136 3z m87 -34 c22 -17 41 -55 34
-67 -8 -13 -142 -13 -150 0 -27 44 72 101 116 67z"/>
<path d="M2213 783 c-42 -14 -58 -33 -29 -33 22 0 26 -24 26 -160 0 -104 -3
-132 -16 -144 -8 -9 -20 -16 -25 -16 -5 0 -9 -4 -9 -10 0 -6 38 -10 95 -10 96
0 115 8 71 28 -19 8 -25 20 -29 59 -11 98 -8 182 8 212 21 41 31 45 64 25 25
-15 32 -15 45 -5 9 8 16 21 16 30 0 43 -60 55 -103 21 -14 -11 -28 -20 -31
-20 -3 0 -6 9 -6 20 0 24 -18 25 -77 3z"/>
<path d="M2546 777 c-86 -49 -116 -196 -57 -288 68 -108 200 -99 272 17 28 47
19 52 -24 14 -45 -39 -95 -48 -134 -25 -49 29 -67 64 -71 135 -3 61 -1 67 28
103 29 34 36 38 74 35 37 -3 42 -6 52 -38 13 -40 46 -59 69 -40 23 19 18 49
-14 81 -26 26 -36 29 -93 29 -47 0 -73 -6 -102 -23z"/>
<path d="M4174 781 c-18 -11 -44 -36 -60 -57 -37 -48 -46 -151 -19 -205 66
-130 211 -143 284 -25 32 52 25 60 -20 24 -97 -78 -209 -11 -209 124 0 77 50
132 113 126 26 -2 35 -10 49 -40 21 -43 31 -51 58 -43 15 5 20 15 20 40 0 27
-6 37 -34 54 -45 28 -138 29 -182 2z"/>
<path d="M5165 790 c-16 -4 -43 -13 -60 -21 -28 -12 -29 -13 -7 -16 34 -6 42
-33 41 -140 -1 -129 -9 -165 -39 -180 -22 -11 -10 -13 80 -13 l105 0 -32 20
-33 20 0 112 c0 129 11 164 50 161 90 -9 85 -10 88 21 6 52 -56 63 -107 20
l-31 -26 0 26 c0 27 -6 29 -55 16z"/>
</g>
</svg>
